<svg width="24" height="24" viewBox="0 0 24 24" fill="none" xmlns="http://www.w3.org/2000/svg">
<path d="M2.1704 23.4766C2.68077 22.3046 3.45048 20.6552 4.48285 18.2705C8.98307 17.7585 10.845 18.6775 13.7027 15.0134C11.3836 15.5231 8.58741 14.0682 8.73703 13.4368C8.88831 12.8066 15.2421 13.8915 19.4032 9.6498C14.1582 10.4805 12.4808 8.65203 13.1574 8.37633C14.7185 7.73899 19.3517 8.11137 21.8221 6.38436C23.0955 5.49519 23.6923 3.33375 23.1736 2.56274C22.5519 1.63061 18.7582 0.240168 16.6669 0.371454C14.5755 0.501547 11.2955 6.08837 10.3213 6.0454C9.35047 6.00124 9.15264 3.54142 10.8516 1.25584C9.0612 1.82515 5.77955 3.59393 4.7505 5.10611C2.83371 7.91921 4.93005 14.3749 4.25842 14.6041C3.58513 14.8344 1.32256 11.643 0.647608 10.1952C-0.275045 12.414 -0.296657 14.6363 2.39815 17.5878C1.3824 19.5249 0.827151 21.7544 0.742366 22.8882C0.702468 23.7941 1.94597 23.9886 2.1704 23.4766Z" fill="white"/>
</svg>
