<svg width="22" height="19" viewBox="0 0 22 19" fill="none" xmlns="http://www.w3.org/2000/svg">
<path d="M21.2075 0.455384C21.0913 0.355042 20.9499 0.288308 20.7986 0.262371C20.6473 0.236435 20.4917 0.252279 20.3487 0.308197L1.34937 7.74351C1.0801 7.84821 0.85214 8.03756 0.699797 8.28303C0.547454 8.52851 0.478977 8.81683 0.504676 9.10459C0.530374 9.39235 0.648857 9.66397 0.842287 9.87857C1.03572 10.0932 1.29362 10.2391 1.57718 10.2944L6.49999 11.261V16.7501C6.49902 17.0491 6.58787 17.3414 6.75503 17.5893C6.92219 17.8372 7.15995 18.0292 7.43749 18.1404C7.71461 18.2535 8.01936 18.2807 8.31213 18.2183C8.60489 18.156 8.87211 18.007 9.07906 17.7907L11.4528 15.3288L15.2187 18.6251C15.4904 18.8661 15.8409 18.9994 16.2041 19.0001C16.3632 18.9999 16.5214 18.975 16.6728 18.926C16.9203 18.8475 17.1428 18.7055 17.3183 18.5142C17.4938 18.3229 17.6162 18.089 17.6731 17.8357L21.4784 1.28132C21.5125 1.13202 21.5052 0.976279 21.4575 0.830779C21.4098 0.685279 21.3234 0.555511 21.2075 0.455384ZM15.4756 3.83038L7.07656 9.84538L2.42656 8.9332L15.4756 3.83038ZM7.99999 16.7501V12.2988L10.3241 14.3369L7.99999 16.7501ZM16.2059 17.5001L8.45468 10.7032L19.6109 2.70726L16.2059 17.5001Z" fill="white"/>
</svg>
